<?xml version="1.0" encoding="UTF-8"?>
<svg width="24" height="24" viewBox="0 0 24 24" fill="none" xmlns="http://www.w3.org/2000/svg">
  <rect width="24" height="24" rx="12" fill="#F5F5F5"/>
  <path fill-rule="evenodd" clip-rule="evenodd" d="M11.5 4H22V5.5H11.5V4ZM11.5 7H22V8.5H11.5V7ZM22 10H2V11.5H22V10ZM2 13H22V14.5H2V13ZM2 16H22V17.5H2V16ZM2 19H22V20.5H2V19Z" fill="#D02F44"/>
  <rect x="2" y="4" width="9.5" height="5.5" fill="#46467F"/>
  <g filter="url(#filter0_d)">
    <path d="M3.5 4.75L4 5.5L4.5 4.75M5.5 4.75L6 5.5L6.5 4.75M7.5 4.75L8 5.5L8.5 4.75M9.5 4.75L10 5.5L10.5 4.75M4.5 6.75L5 7.5L5.5 6.75M6.5 6.75L7 7.5L7.5 6.75M8.5 6.75L9 7.5L9.5 6.75" stroke="white" stroke-width="0.5"/>
  </g>
  <defs>
    <filter id="filter0_d" x="3.25" y="4.5" width="7.5" height="3.25" filterUnits="userSpaceOnUse" color-interpolation-filters="sRGB">
      <feFlood flood-opacity="0" result="BackgroundImageFix"/>
      <feColorMatrix in="SourceAlpha" type="matrix" values="0 0 0 0 0 0 0 0 0 0 0 0 0 0 0 0 0 0 127 0"/>
      <feOffset/>
      <feGaussianBlur stdDeviation="0.125"/>
      <feColorMatrix type="matrix" values="0 0 0 0 0 0 0 0 0 0 0 0 0 0 0 0 0 0 0.5 0"/>
      <feBlend mode="normal" in2="BackgroundImageFix" result="effect1_dropShadow"/>
      <feBlend mode="normal" in="SourceGraphic" in2="effect1_dropShadow" result="shape"/>
    </filter>
  </defs>
</svg>